<?xml version="1.0" encoding="UTF-8"?>
<svg width="19px" height="24px" viewBox="0 0 19 24" version="1.1" xmlns="http://www.w3.org/2000/svg" xmlns:xlink="http://www.w3.org/1999/xlink">
    <title>F2D175E0-62F7-4F6D-B9DE-B6C7F9918D47</title>
    <defs>
        <linearGradient x1="17.3720165%" y1="-6.51029152%" x2="82.6280688%" y2="106.510377%" id="linearGradient-1">
            <stop stop-color="#18884F" offset="0%"></stop>
            <stop stop-color="#117E43" offset="50%"></stop>
            <stop stop-color="#0B6631" offset="100%"></stop>
        </linearGradient>
        <path d="M12.4630412,13.5037151 L12.4630412,17.9573333 L12.4630412,17.9573333 L10.8903268,16.399589 C10.6938161,16.2049489 10.3771209,16.2051697 10.1808819,16.4000837 L10.1380613,16.4426152 C9.94068312,16.6386607 9.93960277,16.9575936 10.1356483,17.1549718 C10.1364499,17.1557789 10.1372542,17.1565832 10.1380613,17.1573848 L13,20 L13,20 L15.8619387,17.1573848 C16.0593169,16.9613393 16.0603972,16.6424064 15.8643517,16.4450282 C15.8635501,16.4442211 15.8627458,16.4434168 15.8619387,16.4426152 L15.8191181,16.4000837 C15.6228791,16.2051697 15.3061839,16.2049489 15.1096732,16.399589 L13.5369588,17.9573333 L13.5369588,17.9573333 L13.5369588,13.5037151 C13.5369588,13.2255209 13.3114379,13 13.0332437,13 L12.9667563,13 C12.6885621,13 12.4630412,13.2255209 12.4630412,13.5037151 Z M9.29090909,21 L16.7090909,21 C16.8697556,21 17,21.1302444 17,21.2909091 L17,21.7090909 C17,21.8697556 16.8697556,22 16.7090909,22 L9.29090909,22 C9.13024444,22 9,21.8697556 9,21.7090909 L9,21.2909091 C9,21.1302444 9.13024444,21 9.29090909,21 Z" id="path-2"></path>
    </defs>
    <g id="🔥-Templates" stroke="none" stroke-width="1" fill="none" fill-rule="evenodd">
        <g id="icons" transform="translate(-432.000000, -459.000000)">
            <g id="Download_Excel" transform="translate(432.000000, 459.000000)">
                <path d="M13.7222,0 L19,4.99997 L19,22 C19,23.1046 18.1046,24 17,24 L17,24 L2,24 C0.895431,24 0,23.1046 0,22 L0,22 L0,2 C0,0.895431 0.895431,0 2,0 L2,0 L13.7222,0 Z M14,1.64066 L14,4 C14,4.55228 14.4477,5 15,5 L17.546,5 L14,1.64066 Z M18,22 L18,6 L15,6 C13.8954,6 13,5.10457 13,4 L13,1 L2,1 C1.44771,1 1,1.44772 1,2 L1,22 C1,22.5523 1.44771,23 2,23 L17,23 C17.5523,23 18,22.5523 18,22 Z" id="File" fill="#DDE2E7"></path>
                <g id="Microsoft_Excel-Logo.wine" transform="translate(3.000000, 3.000000)" fill-rule="nonzero">
                    <path d="M0.749862356,0 L8.25013764,0 C8.66427628,0 9,0.335723718 9,0.749862356 L9,8.25013764 C9,8.66427628 8.66427628,9 8.25013764,9 L0.749862356,9 C0.335723718,9 0,8.66428396 0,8.25014533 L0,0.749862356 C0,0.335723718 0.335723718,0 0.749862356,0 Z" id="Path" fill="url(#linearGradient-1)"></path>
                    <path d="M2.32240915,6.9373734 L3.89986504,4.49305121 L2.45454755,2.06222711 L3.61718106,2.06222711 L4.40590901,3.61677389 C4.4787311,3.76445392 4.52863639,3.87409037 4.55564025,3.94649761 L4.56586561,3.94649761 L5.57263728,2.06304914 L6.63995445,2.06304914 L5.1578149,4.47955312 L6.67759853,6.93736572 L5.5419612,6.93736572 L4.63091304,5.23105184 C5.39674115,5.29220863 3.63722302,5.29220863 4.40305113,5.23105184 L3.61718106,5.95227038 C3.04574066,5.89346798 4.36011315,5.27825249 4.38955304,4.70454947 C4.41899293,4.13084645 5.18190273,5.17224944 4.61046232,5.23105184 L3.67241799,6.94432603 L2.32240915,6.9373734 Z" id="Path" fill="#FFFFFF"></path>
                </g>
                <mask id="mask-3" fill="white">
                    <use xlink:href="#path-2"></use>
                </mask>
                <use id="Combined-Shape" fill="#000000" xlink:href="#path-2"></use>
                <g id=".misc-/-Fill-/-Grey-1" mask="url(#mask-3)" fill="#7C878F">
                    <rect id="Rectangle" x="0" y="0" width="19" height="24"></rect>
                </g>
            </g>
        </g>
    </g>
</svg>