<svg width="16" height="16" viewBox="0 0 16 16" xmlns="http://www.w3.org/2000/svg">
    <g fill="none" fill-rule="evenodd">
        <path d="M0 0h16v16H0z"/>
        <path d="M12.667 5.333c1.106 0 2 .894 2 2v4H12V14H4v-2.667H1.333v-4c0-1.106.894-2 2-2H4V2h8v3.333h.667zm-7.334-2v2h5.334v-2H5.333zm5.334 9.334V10H5.333v2.667h5.334zM12 10h1.333V7.333c0-.366-.3-.666-.666-.666H3.333c-.366 0-.666.3-.666.666V10H4V8.667h8V10zm0-1.667A.667.667 0 1 1 12 7a.667.667 0 0 1 0 1.333z" fill="#7C878F"/>
    </g>
</svg>
