<svg width="19" height="24" viewBox="0 0 19 24" xmlns="http://www.w3.org/2000/svg" xmlns:xlink="http://www.w3.org/1999/xlink">
    <defs>
        <path d="M16.71 21c.16 0 .29.13.29.29v.42c0 .16-.13.29-.29.29H9.29a.29.29 0 0 1-.29-.29v-.42c0-.16.13-.29.29-.29h7.42zm-3.677-8c.278 0 .504.226.504.504v4.453L15.11 16.4a.504.504 0 0 1 .71 0l.042.043a.504.504 0 0 1 0 .715L13 20l-2.862-2.843a.504.504 0 0 1 0-.715l.043-.042a.504.504 0 0 1 .71 0l1.572 1.557v-4.453c0-.278.226-.504.504-.504z" id="a"/>
    </defs>
    <g fill="none" fill-rule="evenodd">
        <path d="M13.722 0 19 5v17a2 2 0 0 1-2 2H2a2 2 0 0 1-2-2V2a2 2 0 0 1 2-2h11.722zM14 1.64V4a1 1 0 0 0 1 1h2.546L14 1.64zM18 22V6h-3a2 2 0 0 1-2-2V1H2a1 1 0 0 0-1 1v20a1 1 0 0 0 1 1h15a1 1 0 0 0 1-1z" fill="#DDE2E7"/>
        <path d="M13.018 9.883c-.218-.215-.703-.33-1.44-.339a11.915 11.915 0 0 0-1.73.127c-.282-.164-.574-.34-.803-.555-.615-.574-1.13-1.372-1.449-2.249.02-.081.039-.153.055-.227 0 0 .347-1.969.255-2.634a.78.78 0 0 0-.045-.189l-.03-.077c-.095-.217-.28-.448-.569-.435l-.17-.005h-.005c-.323 0-.587.165-.656.412-.21.775.001 1.937.4 3.436l-.1.244c-.282.686-.634 1.377-.946 1.987l-.04.079c-.328.64-.624 1.185-.894 1.645l-.278.146c-.02.011-.497.263-.609.33-.947.567-1.575 1.209-1.68 1.72-.033.162-.008.37.16.466l.27.135c.116.059.239.089.365.089.675 0 1.459-.841 2.54-2.726a25.257 25.257 0 0 1 3.91-.93c.947.535 2.113.905 2.85.905.13 0 .242-.012.334-.036a.57.57 0 0 0 .333-.227c.142-.215.171-.511.133-.814a.547.547 0 0 0-.161-.278M2.934 13.476c.122-.337.61-1.002 1.33-1.593.046-.037.158-.141.26-.239-.753 1.202-1.258 1.681-1.59 1.832m4.268-9.829c.217 0 .34.547.35 1.06.011.513-.11.873-.258 1.14-.123-.395-.182-1.017-.182-1.423 0 0-.01-.777.09-.777M5.93 10.652c.151-.271.308-.556.469-.86.392-.74.639-1.32.824-1.797a5.945 5.945 0 0 0 1.36 1.688c.066.057.137.114.212.17-1.092.217-2.035.48-2.865.799m6.88-.062c-.067.042-.257.065-.38.065-.394 0-.883-.18-1.57-.474.264-.02.506-.03.722-.03.396 0 .514-.002.901.097.388.1.393.3.327.341" fill="#FF3100" fill-rule="nonzero"/>
        <mask id="b" fill="#fff">
            <use xlink:href="#a"/>
        </mask>
        <use fill="#000" xlink:href="#a"/>
        <g mask="url(#b)" fill="#7C878F">
            <path d="M0 0h19v24H0z"/>
        </g>
    </g>
</svg>
