<?xml version="1.0" encoding="UTF-8"?>
<svg width="21px" height="21px" viewBox="0 0 21 21" version="1.1" xmlns="http://www.w3.org/2000/svg" xmlns:xlink="http://www.w3.org/1999/xlink">
    <title>787FD7E4-C9A8-467D-B559-69FA90057A4A</title>
    <g id="🔥-Templates" stroke="none" stroke-width="1" fill="none" fill-rule="evenodd">
        <g id="icons" transform="translate(-535.000000, -242.000000)" fill="#7c878f">
            <g id="icon_zoom_plus" transform="translate(535.000000, 242.000000)">
                <path d="M12.7263385,11.0740908 C14.6777201,8.33631403 14.4253258,4.51067123 11.9691556,2.05333256 C9.2313789,-0.684444187 4.7922778,-0.684444187 2.05333256,2.05333256 C-0.684444187,4.7922778 -0.684444187,9.2302104 2.05333256,11.9691556 C4.51067123,14.4253258 8.33631403,14.6777201 11.0740908,12.7263385 L12.1900006,13.8422483 C11.9820091,14.6216325 12.1829897,15.4886535 12.7952795,16.0997749 L16.8160604,20.1205558 C17.7286527,21.0331481 19.2079636,21.0331481 20.1205558,20.1205558 C21.0331481,19.2079636 21.0331481,17.7286527 20.1205558,16.8160604 L16.0997749,12.7952795 C15.4886535,12.1829897 14.6216325,11.9820091 13.8422483,12.1900006 L12.7263385,11.0740908 Z M8,4 L8,6 L10,6 L10,8 L8,8 L8,10 L6,10 L6,8 L4,8 L4,6 L6,6 L6,4 L8,4 Z M10.5351104,3.46522092 C12.4876714,5.4175989 12.4889215,8.5824011 10.5351104,10.5347791 C8.58254944,12.488407 5.41745056,12.488407 3.46488955,10.5347791 C1.51232855,8.5824011 1.51107851,5.4175989 3.46488955,3.46522092 C5.41745056,1.51159303 8.58254944,1.51159303 10.5351104,3.46522092 Z" id="Icon"></path>
            </g>
        </g>
    </g>
</svg>