<svg width="12" height="16" viewBox="0 0 12 16" xmlns="http://www.w3.org/2000/svg" xmlns:xlink="http://www.w3.org/1999/xlink">
    <defs>
        <path d="M9.9 14c.608 0 1.1.448 1.1 1s-.492 1-1.1 1H1.1C.493 16 0 15.552 0 15s.493-1 1.1-1zM5.538 0a1 1 0 0 1 1 1v8.254l2.631-2.503a1.157 1.157 0 0 1 1.579 0 1.026 1.026 0 0 1 0 1.502L5.537 13 .327 8.253a1.026 1.026 0 0 1 0-1.502 1.157 1.157 0 0 1 1.579 0l2.632 2.503V1a1 1 0 0 1 1-1z" id="a"/>
    </defs>
    <use fill="#7c878f" xlink:href="#a" fill-rule="evenodd"/>
</svg>
