<?xml version="1.0" encoding="UTF-8"?>
<svg width="18px" height="20px" viewBox="0 0 18 20" version="1.1" xmlns="http://www.w3.org/2000/svg" xmlns:xlink="http://www.w3.org/1999/xlink">
    <title>473E095F-1550-4DD8-BED5-682C7627D230</title>
    <defs>
        <path d="M15.5,2 L2.5,2 C2.2295695,2 2,2.2295695 2,2.5 L2,17.5 C2,17.7704305 2.2295695,18 2.5,18 L15.5,18 C15.7704305,18 16,17.7704305 16,17.5 L16,2.5 C16,2.2295695 15.7704305,2 15.5,2 Z M15.5,0 C16.875,0 18,1.125 18,2.5 L18,17.5 C18,18.875 16.875,20 15.5,20 L2.5,20 C1.125,20 0,18.875 0,17.5 L0,2.5 C0,1.125 1.125,0 2.5,0 L15.5,0 Z M8,12 L5,12 C4.44771525,12 4,12.4477153 4,13 C4,13.5522847 4.44771525,14 5,14 L5,14 L8,14 C8.55228475,14 9,13.5522847 9,13 C9,12.4477153 8.55228475,12 8,12 L8,12 Z M12,8 L5,8 C4.44771525,8 4,8.44771525 4,9 C4,9.55228475 4.44771525,10 5,10 L5,10 L12,10 C12.5522847,10 13,9.55228475 13,9 C13,8.44771525 12.5522847,8 12,8 L12,8 Z M13,4 L5,4 C4.44771525,4 4,4.44771525 4,5 C4,5.55228475 4.44771525,6 5,6 L5,6 L13,6 C13.5522847,6 14,5.55228475 14,5 C14,4.44771525 13.5522847,4 13,4 L13,4 Z" id="path-1"></path>
    </defs>
    <g id="🔥-Templates" stroke="none" stroke-width="1" fill="none" fill-rule="evenodd">
        <g id="icons" transform="translate(-74.000000, -189.000000)">
            <g id="Icon-list" transform="translate(74.000000, 189.000000)">
                <mask id="mask-2" fill="white">
                    <use xlink:href="#path-1"></use>
                </mask>
                <use id="Shape" fill="#7c878f" fill-rule="nonzero" xlink:href="#path-1"></use>
            </g>
        </g>
    </g>
</svg>