<svg width="24" height="24" viewBox="0 0 24 24" xmlns="http://www.w3.org/2000/svg" xmlns:xlink="http://www.w3.org/1999/xlink">
    <defs>
        <path d="M19.636 4.364c1.205 0 2.182.976 2.182 2.181v10.91a2.182 2.182 0 0 1-2.182 2.181H4.364a2.182 2.182 0 0 1-2.182-2.181V6.545c0-1.205.977-2.181 2.182-2.181zm-.545 2.181H4.909a.545.545 0 0 0-.545.546v9.818c0 .301.244.546.545.546h14.182a.545.545 0 0 0 .545-.546V7.091a.545.545 0 0 0-.545-.546zM15.665 9.4a.981.981 0 0 1 1.118 1.613l-1.513 1.05 1.441.893a.99.99 0 1 1-1.043 1.684l-2.172-1.347L12 14.342l-1.376-.966-2.297 1.314a.996.996 0 0 1-.99-1.73l1.474-.842-1.594-1.106a.981.981 0 1 1 1.118-1.613L12 11.942z" id="a"/>
    </defs>
    <g fill="none" fill-rule="evenodd">
        <mask id="b" fill="#fff">
            <use xlink:href="#a"/>
        </mask>
        <use fill="#000" fill-rule="nonzero" xlink:href="#a"/>
        <g mask="url(#b)" fill="#2277B7">
            <path d="M0 0h24v24H0z"/>
        </g>
    </g>
</svg>
