<svg width="20" height="20" viewBox="0 0 20 20" xmlns="http://www.w3.org/2000/svg" xmlns:xlink="http://www.w3.org/1999/xlink">
    <defs>
        <path d="M10.085 4.545c-4.659 0-7.323 3.22-8.097 4.891l-.17.368.16.371c.754 1.767 3.407 5.28 8.107 5.28 4.701 0 7.355-3.513 8.11-5.28l.159-.371-.17-.368c-.774-1.67-3.439-4.89-8.099-4.89zM6.29 12.5c-1.212-.799-2.03-1.864-2.458-2.663.44-.748 1.294-1.762 2.573-2.502A4.529 4.529 0 0 0 5.54 10c0 .924.275 1.783.75 2.5zm7.594 0c1.212-.799 2.03-1.864 2.458-2.663-.44-.748-1.295-1.762-2.574-2.502.544.749.864 1.67.864 2.666 0 .924-.275 1.783-.748 2.5zM12.813 10a2.727 2.727 0 1 1-5.454 0 2.727 2.727 0 0 1 5.454 0z" id="a"/>
    </defs>
    <g fill="none" fill-rule="evenodd">
        <mask id="b" fill="#fff">
            <use xlink:href="#a"/>
        </mask>
        <g mask="url(#b)" fill="#2277B7">
            <path d="M0 0h20v20H0z"/>
        </g>
    </g>
</svg>
