<svg width="12" height="18" viewBox="0 0 12 18" xmlns="http://www.w3.org/2000/svg" xmlns:xlink="http://www.w3.org/1999/xlink">
    <defs>
        <path d="M7.725 8c.368 0 .666.298.666.667v6.78l1.923-1.918a.666.666 0 0 1 .94.941L7.725 18l-3.53-3.53a.665.665 0 0 1 .941-.94l1.923 1.917v-6.78c0-.369.298-.667.667-.667zm-4-8 3.53 3.53a.665.665 0 0 1-.941.94L4.391 2.554v6.78a.667.667 0 1 1-1.333 0v-6.78L1.135 4.471a.666.666 0 0 1-.94-.941L3.725 0z" id="a"/>
    </defs>
    <use fill="#414e5c" xlink:href="#a" fill-rule="evenodd"/>
</svg>
