<svg width="119" height="24" viewBox="0 0 119 24" xmlns="http://www.w3.org/2000/svg">
    <defs>
        <linearGradient x1="49.847%" y1="8.899%" x2="50.265%" y2="99.309%" id="8frna4rl3a">
            <stop stop-color="#E6332D" offset="0%"/>
            <stop stop-color="#C83633" offset="98.06%"/>
        </linearGradient>
    </defs>
    <g fill="none" fill-rule="evenodd">
        <path d="M10.9 0a43.145 43.145 0 0 1-3.964 1.545c-1.321.428-2.675.822-4.062 1.118-1.19.263-2.147.427-2.874.559 0 1.775.1 3.452.33 5.063.265 1.742.66 3.42 1.222 4.964.925 2.565 2.28 4.833 3.997 6.707.66.756 1.387 1.414 2.18 2.039.628.493 1.255.92 1.916 1.315.528.328.99.526 1.288.69.33-.164.826-.395 1.42-.756.66-.395 1.288-.855 1.916-1.348a18.18 18.18 0 0 0 2.147-2.071c1.684-1.907 3.005-4.143 3.93-6.707a25.307 25.307 0 0 0 1.19-4.899c.23-1.578.33-3.255.33-4.997-.694-.099-1.685-.296-2.84-.559-1.487-.296-2.841-.69-4.163-1.118A43.145 43.145 0 0 1 10.9 0z" fill="url(#8frna4rl3a)"/>
        <path d="M11.362 16.208a.314.314 0 0 1 .43-.065c.165.098.165.328.066.46-.265.361-.562.69-.892 1.019a.3.3 0 0 1-.231.099.357.357 0 0 1-.232-.099.317.317 0 0 1 0-.46c.33-.296.595-.625.86-.954zm-.495-7.035c.925 0 1.651.756 1.618 1.61 0 .888-.132 1.743-.396 2.565a7.163 7.163 0 0 1-.694 1.545c-.264.493-.594.92-.958 1.348-.363.428-.76.822-1.222 1.15a.47.47 0 0 1-.198.067.3.3 0 0 1-.264-.132c-.1-.131-.1-.362.066-.46.396-.329.792-.658 1.123-1.052a8.24 8.24 0 0 0 .892-1.217c.264-.46.462-.92.627-1.413a7.125 7.125 0 0 0 .397-2.368.99.99 0 0 0-.88-.98l-.111-.006h-.1c-.495.066-.891.493-.891.986 0 .757-.132 1.48-.43 2.137-.033.132-.165.198-.297.198-.033 0-.099 0-.132-.033-.165-.066-.231-.263-.165-.428a5.118 5.118 0 0 0 .363-1.874 1.64 1.64 0 0 1 1.337-1.62l.15-.023h.165zm3.105 4.833c.066-.165.264-.264.429-.198.198.033.264.23.165.395a5.75 5.75 0 0 1-.396 1.052l-.1.197c-.297.658-.693 1.282-1.122 1.874a.3.3 0 0 1-.265.132c-.066 0-.132-.033-.198-.066a.352.352 0 0 1-.066-.46 8.87 8.87 0 0 0 1.156-1.94l.1-.197.297-.79zm-3.105-3.551c.198 0 .33.131.33.329 0 .46-.033.92-.132 1.38-.1.46-.231.921-.43 1.348-.165.428-.429.855-.693 1.25a4.358 4.358 0 0 1-.958 1.085 6.827 6.827 0 0 1-1.255.92c-.066.033-.1.033-.165.033a.347.347 0 0 1-.298-.164c-.066-.165-.033-.362.133-.46.396-.23.792-.494 1.123-.823.33-.295.627-.624.891-.986a5.36 5.36 0 0 0 .628-1.118c.165-.394.264-.789.363-1.216a5.36 5.36 0 0 0 .132-1.25c0-.197.132-.328.33-.328zm5.285.033c.198 0 .33.164.33.296 0 1.874-.43 3.649-1.222 5.293-.066.131-.165.197-.297.197-.033 0-.1 0-.133-.033-.165-.066-.23-.263-.165-.427a11.325 11.325 0 0 0 1.156-4.998c0-.197.132-.328.33-.328zm-7.928 3.287c.1-.131.33-.164.463-.065a.352.352 0 0 1 .066.46 4.684 4.684 0 0 1-.991.986 5.298 5.298 0 0 1-1.255.756c-.033.033-.1.033-.132.033-.133 0-.232-.065-.298-.197-.066-.164 0-.362.165-.427a4.786 4.786 0 0 0 1.123-.658c.33-.263.595-.559.86-.888zm3.667-5.72a2.924 2.924 0 0 1 1.898 2.374l.017.19v.395c0 1.15-.23 2.268-.66 3.353-.1.296-.264.592-.397.888-.066.098-.165.164-.33.197-.066 0-.132 0-.165-.033-.165-.098-.198-.296-.132-.46.165-.263.297-.526.396-.822a8.915 8.915 0 0 0 .608-2.718l.02-.405v-.329c-.033-.888-.628-1.677-1.487-2.006a2.13 2.13 0 0 0-1.288-.098c-.363.066-.693.23-.99.46-.133.099-.364.066-.463-.066-.1-.131-.066-.328.066-.46a2.95 2.95 0 0 1 1.255-.592c.628-.098 1.156-.065 1.652.132zm-3.337 1.48c.166.065.232.262.166.427a2.46 2.46 0 0 0-.166.855 4.26 4.26 0 0 1-.726 2.367 3.56 3.56 0 0 1-.958 1.019 3.986 3.986 0 0 1-1.288.657c-.033.033-.066.033-.1.033-.164 0-.297-.098-.33-.23a.357.357 0 0 1 .232-.394c.396-.132.76-.33 1.09-.56.33-.23.627-.525.858-.887a3.573 3.573 0 0 0 .595-2.005c0-.395.066-.757.198-1.118.066-.165.264-.23.43-.165zm2.346-3 .264.008a.386.386 0 0 1 .297.361.387.387 0 0 1-.363.296 3.652 3.652 0 0 0-1.321.164c-.396.132-.76.296-1.09.56-.33.23-.628.525-.859.887a3.572 3.572 0 0 0-.594 2.005 2.78 2.78 0 0 1-1.09 2.236 2.775 2.775 0 0 1-1.111.607l-.21.05h-.067a.321.321 0 0 1-.33-.262.341.341 0 0 1 .264-.395c.397-.066.76-.23 1.057-.493a2.259 2.259 0 0 0 .826-1.743c0-.854.264-1.676.727-2.367a4.28 4.28 0 0 1 .99-1.052A3.984 3.984 0 0 1 9.58 6.74c.352-.11.704-.176 1.057-.197l.264-.009zm-.033-2.623a6.969 6.969 0 0 1 6.969 6.904c0 .56-.1 1.151-.231 1.71a.345.345 0 0 1-.272.257l-.059.006h-.099c-.165-.033-.264-.23-.23-.394a6.458 6.458 0 0 0 .197-1.579c0-3.452-2.807-6.246-6.275-6.246-3.468 0-6.276 2.794-6.276 6.246 0 .198-.132.33-.33.33s-.33-.132-.33-.33c0-3.813 3.104-6.904 6.936-6.904zm2.18 3.19a4.317 4.317 0 0 1 2.147 3.714c0 .592-.033 1.151-.133 1.71a.362.362 0 0 1-.261.255l-.069.008h-.066c-.198-.033-.33-.197-.264-.394.099-.526.132-1.053.132-1.579a3.628 3.628 0 0 0-1.817-3.123c-.165-.098-.23-.296-.132-.46.1-.164.298-.23.463-.132zm-7.465 3.386c.198 0 .33.131.33.328a1.64 1.64 0 0 1-1.337 1.62l-.15.024h-.032c-.165 0-.297-.131-.33-.296-.033-.197.132-.328.297-.361.495-.066.892-.493.892-.987 0-.197.132-.328.33-.328zm3.501-4.636c.066.164 0 .362-.165.428a4.785 4.785 0 0 0-1.123.657c-.33.263-.595.559-.859.888-.264.328-.462.723-.627 1.085-.1.23-.166.427-.232.657-.066.165-.198.263-.33.263-.033 0-.066 0-.033-.033-.165-.033-.264-.23-.231-.394.066-.23.132-.493.231-.723.165-.428.396-.822.694-1.217.297-.394.627-.723.99-1.02a5.3 5.3 0 0 1 1.256-.755c.165-.066.363 0 .43.164zm2.874-.526a5.825 5.825 0 0 1 1.777.702l.237.153.1.066c1.09.789 1.882 1.906 2.213 3.189.057.143-.037.312-.172.374l-.06.02h-.066c-.132 0-.264-.099-.33-.263a4.762 4.762 0 0 0-1.688-2.616l-.195-.146-.066-.032a4.853 4.853 0 0 0-1.85-.79 4.53 4.53 0 0 0-1.618-.065.386.386 0 0 1-.363-.296c-.033-.164.099-.329.264-.362a5.688 5.688 0 0 1 1.817.066z" fill="#FFF" fill-rule="nonzero"/>
        <path d="M38.84 14.589c0 1.374-.53 2.325-1.539 2.959-1.008.581-2.335.898-3.928.898H28.49V5.554h4.513c1.539 0 2.813.317 3.822.95 1.008.635 1.539 1.533 1.539 2.801 0 .476-.106.846-.319 1.215-.212.37-.53.74-.849 1.11.53.37.956.793 1.274 1.321.212.476.372 1.057.372 1.638zm-4.087-5.125c0-.37-.159-.687-.477-.846-.319-.211-.797-.317-1.38-.317h-.956v2.167h.796c.584 0 1.062-.106 1.433-.264.372-.16.584-.423.584-.74zm.531 5.072c0-.423-.16-.74-.478-1.004-.318-.264-.796-.37-1.38-.37H31.94v2.59h1.486c.584 0 1.009-.106 1.327-.318.372-.211.531-.528.531-.898zM44.202 5.554v12.892h-3.45V5.554zM54.553 13.532h-2.229l.318-2.536h5.043v6.71c-.477.317-1.167.529-2.017.687-.902.159-1.698.265-2.388.265-1.38 0-2.602-.265-3.663-.793-1.062-.528-1.858-1.268-2.389-2.272-.584-1.004-.85-2.166-.85-3.54s.32-2.536.956-3.593c.637-1.057 1.486-1.797 2.548-2.325 1.062-.528 2.23-.793 3.557-.793.69 0 1.433.106 2.23.265.795.211 1.432.422 1.91.792l-1.008 2.325c-.637-.211-1.168-.37-1.699-.423-.478-.105-.956-.105-1.433-.105-.531 0-1.062.158-1.646.422-.53.317-1.008.74-1.327 1.321a4.452 4.452 0 0 0-.53 2.114c0 .845.158 1.585.477 2.166.318.581.743 1.004 1.274 1.268.53.264 1.062.423 1.646.423.371 0 .796-.053 1.22-.106v-2.272zM65.157 14.695v3.751h-3.45V5.554h5.467c1.009 0 1.911.158 2.708.528.796.37 1.433.846 1.91 1.585.478.687.69 1.533.69 2.537 0 1.003-.265 1.796-.743 2.483-.53.687-1.167 1.162-2.017 1.532a7.68 7.68 0 0 1-2.707.476h-1.858zm3.716-4.491c0-.582-.16-1.057-.53-1.427-.32-.37-.797-.528-1.381-.528h-1.858v3.698h1.964c.53 0 .956-.158 1.327-.528.319-.264.478-.687.478-1.215zM74.394 18.446V5.554h5.414c1.54 0 2.814.37 3.822 1.11 1.01.74 1.486 1.849 1.486 3.275 0 .74-.158 1.427-.477 2.008a4.136 4.136 0 0 1-1.274 1.427l2.866 5.072h-4.034l-2.07-4.068h-2.283v4.068h-3.45zM81.56 9.94c0-.58-.16-.95-.478-1.268-.318-.317-.796-.422-1.38-.422h-1.858v3.434h1.911c.531 0 .956-.159 1.327-.476.372-.317.478-.74.478-1.268zM91.433 5.554v12.892h-3.45V5.554zM103.165 12.211l-1.752 2.325-1.38.212-2.07-2.537v6.235h-3.451V5.554H96.9l3.928 4.914 3.557-4.914h2.283v12.892h-3.504zM118.824 15.751l.319 2.695h-9.502V5.554h9.13l.318 2.695h-5.997v2.324h3.98l.32 2.695h-4.3v2.43h5.732z" fill="#414042" fill-rule="nonzero"/>
    </g>
</svg>
