<svg width="24" height="24" viewBox="0 0 24 24" xmlns="http://www.w3.org/2000/svg" xmlns:xlink="http://www.w3.org/1999/xlink">
    <defs>
        <path d="M19.09 3.273H4.91a.554.554 0 0 0-.546.545v16.364c0 .295.25.545.545.545h14.182c.295 0 .545-.25.545-.545V3.818a.554.554 0 0 0-.545-.545zm0-2.182c1.5 0 2.728 1.227 2.728 2.727v16.364c0 1.5-1.227 2.727-2.727 2.727H4.909a2.735 2.735 0 0 1-2.727-2.727V3.818c0-1.5 1.227-2.727 2.727-2.727h14.182zm-8.18 13.09H7.635a1.09 1.09 0 1 0 0 2.183h3.273a1.09 1.09 0 0 0 0-2.182zm4.363-4.363H7.636a1.09 1.09 0 0 0 0 2.182h7.637a1.09 1.09 0 0 0 0-2.182zm1.09-4.363H7.637a1.09 1.09 0 0 0 0 2.181h8.728a1.09 1.09 0 0 0 0-2.181z" id="a"/>
    </defs>
    <g fill="none" fill-rule="evenodd">
        <mask id="b" fill="#fff">
            <use xlink:href="#a"/>
        </mask>
        <use fill="#000" fill-rule="nonzero" xlink:href="#a"/>
        <g mask="url(#b)" fill="#2277B7">
            <path d="M0 0h24v24H0z"/>
        </g>
    </g>
</svg>
