<svg width="22" height="22" viewBox="0 0 22 22" xmlns="http://www.w3.org/2000/svg" xmlns:xlink="http://www.w3.org/1999/xlink">
    <defs>
        <path d="M17.516 3.016a.786.786 0 1 1 1.11 1.11l-14.14 14.14a.786.786 0 1 1-1.111-1.111l1.104-1.1A9.756 9.756 0 0 1 .05 11a.791.791 0 0 1-.051-.28v-.157a.786.786 0 0 1 .056-.278 10.12 10.12 0 0 1 5.736-5.701 13.992 13.992 0 0 1 10.214-.059zm.044 3.105a.786.786 0 0 1 1.1-.157 9.595 9.595 0 0 1 3.289 4.321c.034.09.051.184.051.28v.156c0 .095-.017.19-.051.279-1.753 4.618-6.497 6.704-10.988 6.704a13.918 13.918 0 0 1-2.966-.314.786.786 0 1 1 .337-1.535c4.452.97 10.15-.53 12.068-5.212a8.058 8.058 0 0 0-2.683-3.422.786.786 0 0 1-.157-1.1zm-3.228 3.202a.786.786 0 0 1 1.297.452c.057.286.085.576.085.868A4.719 4.719 0 0 1 11 15.357c-.292 0-.582-.028-.868-.085a.786.786 0 1 1 .306-1.541c.185.036.373.055.562.055a3.143 3.143 0 0 0 3.143-3.143c0-.189-.018-.377-.055-.562a.786.786 0 0 1 .244-.758zm.46-3.581a12.43 12.43 0 0 0-8.4.295A8.564 8.564 0 0 0 1.6 10.643a8.345 8.345 0 0 0 4.038 4.251l1.522-1.52a4.714 4.714 0 0 1 6.572-6.572zm-2.194 2.192a3.147 3.147 0 0 0-4.307 4.307z" id="a"/>
    </defs>
    <g fill="none" fill-rule="evenodd">
        <mask id="b" fill="#fff">
            <use xlink:href="#a"/>
        </mask>
        <use fill="#DF7171" fill-rule="nonzero" xlink:href="#a"/>
    </g>
</svg>
