<svg width="22" height="22" viewBox="0 0 22 22" xmlns="http://www.w3.org/2000/svg" xmlns:xlink="http://www.w3.org/1999/xlink">
    <defs>
        <path d="M11 4c5.102 0 9.4 2.635 10.949 6.712.034.09.051.185.051.28v.158c0 .095-.017.19-.051.279-1.54 4.055-5.813 6.674-10.887 6.674-5.13 0-9.453-2.65-11.01-6.753A.786.786 0 0 1 0 11.071v-.078c0-.095.017-.19.051-.28C1.6 6.636 5.898 4 11 4zm0 1.571c-4.34 0-7.991 2.135-9.384 5.46 1.402 3.35 5.078 5.5 9.446 5.5 4.33 0 7.968-2.136 9.34-5.46-1.381-3.348-5.044-5.5-9.402-5.5zm0 .786a4.714 4.714 0 1 1 0 9.429 4.714 4.714 0 0 1 0-9.429zm0 1.572a3.143 3.143 0 1 0 0 6.285 3.143 3.143 0 0 0 0-6.285zm0 .785a.786.786 0 1 1 0 1.572.786.786 0 0 0-.779.679l-.007.106a.786.786 0 0 1-1.571 0A2.357 2.357 0 0 1 11 8.714z" id="a"/>
    </defs>
    <g fill="none" fill-rule="evenodd">
        <mask id="b" fill="#fff">
            <use xlink:href="#a"/>
        </mask>
        <use fill="#DF7171" fill-rule="nonzero" xlink:href="#a"/>
    </g>
</svg>
