<svg width="22" height="22" viewBox="0 0 22 22" xmlns="http://www.w3.org/2000/svg" xmlns:xlink="http://www.w3.org/1999/xlink">
    <defs>
        <path d="M11.185 5h-6.37C4.365 5 4 5.448 4 6v10c0 .552.365 1 .815 1h6.37c.45 0 .815-.448.815-1V6c0-.552-.365-1-.815-1zM4.57 3C3.151 3 2 4.343 2 6v10c0 1.657 1.151 3 2.571 3h6.858C12.848 19 14 17.657 14 16V6c0-1.657-1.152-3-2.571-3H4.57zM12 7.85h2v6.02h-2V7.85zm1.996 4.02h1.351v1.708c0 .572.644.907 1.111.578L19.7 11.47c.4-.282.4-.875 0-1.156l-3.242-2.686a.705.705 0 0 0-1.11.578v1.645h-1.346l-.006 2.017zm-5.987 0h6V9.851H8.028l-.02 2.017z" id="a"/>
    </defs>
    <g fill="none" fill-rule="evenodd">
        <mask id="b" fill="#fff">
            <use xlink:href="#a"/>
        </mask>
        <g mask="url(#b)" fill="#798790">
            <path d="M0 0h22v22H0z"/>
        </g>
    </g>
</svg>
