<svg width="24" height="24" viewBox="0 0 24 24" xmlns="http://www.w3.org/2000/svg" xmlns:xlink="http://www.w3.org/1999/xlink">
    <defs>
        <path d="M12.757 13.1a6.545 6.545 0 0 0-6.212 6.536c0 1.206.977 2.182 2.182 2.182h13.091A2.181 2.181 0 0 0 24 19.636a6.545 6.545 0 0 0-6.545-6.545H13.09a6.78 6.78 0 0 0-.334.009zm-.37-2.19c.769.678 1.78 1.09 2.886 1.09a4.349 4.349 0 0 0 2.886-1.09 4.364 4.364 0 1 0-5.773 0zm8.886 8.726a.546.546 0 0 0 .545-.545v-.546c0-2.41-1.954-3.272-4.363-3.272H13.09c-2.41 0-4.364.863-4.364 3.272v.546c0 .301.245.545.546.545h12zM10.363 3.491a1.08 1.08 0 0 1 0 1.527L5.783 9.6a1.08 1.08 0 0 1-1.027.284 1.078 1.078 0 0 1-.61-.306l-2.29-2.29A1.08 1.08 0 0 1 3.382 5.76l1.592 1.593L8.836 3.49a1.08 1.08 0 0 1 1.528 0zm4.91 1.964a2.181 2.181 0 1 1 0 4.363 2.181 2.181 0 0 1 0-4.363z" id="a"/>
    </defs>
    <g fill="none" fill-rule="evenodd">
        <mask id="b" fill="#fff">
            <use xlink:href="#a"/>
        </mask>
        <g mask="url(#b)" fill="#C0C6CD">
            <path d="M0 0h24v24H0z"/>
        </g>
    </g>
</svg>
