<svg width="24" height="24" viewBox="0 0 24 24" xmlns="http://www.w3.org/2000/svg" xmlns:xlink="http://www.w3.org/1999/xlink">
    <defs>
        <path d="M9.484 13.1a6.545 6.545 0 0 0-6.211 6.536c0 1.206.977 2.182 2.182 2.182h13.09a2.181 2.181 0 0 0 2.182-2.182 6.545 6.545 0 0 0-6.545-6.545H9.818a6.78 6.78 0 0 0-.334.009zm-.37-2.19C9.883 11.587 10.894 12 12 12a4.349 4.349 0 0 0 2.886-1.09 4.364 4.364 0 1 0-5.773 0zM18 19.635a.546.546 0 0 0 .545-.545v-.546c0-2.41-1.953-3.272-4.363-3.272H9.818c-2.41 0-4.363.863-4.363 3.272v.546c0 .301.244.545.545.545h12zm-6-9.818a2.181 2.181 0 1 0 0-4.363 2.181 2.181 0 0 0 0 4.363z" id="a"/>
    </defs>
    <g fill="none" fill-rule="evenodd">
        <mask id="b" fill="#fff">
            <use xlink:href="#a"/>
        </mask>
        <use fill="#000" xlink:href="#a"/>
        <g mask="url(#b)" fill="#2277B7">
            <path d="M0 0h24v24H0z"/>
        </g>
    </g>
</svg>
