<?xml version="1.0" encoding="UTF-8"?>
<svg width="19px" height="24px" viewBox="0 0 19 24" version="1.1" xmlns="http://www.w3.org/2000/svg" xmlns:xlink="http://www.w3.org/1999/xlink">
    <title>xxxhdpi/excell-doc</title>
    <defs>
        <linearGradient x1="17.3720165%" y1="-5.74509667%" x2="82.6280688%" y2="105.745181%" id="linearGradient-1">
            <stop stop-color="#18884F" offset="0%"></stop>
            <stop stop-color="#117E43" offset="50%"></stop>
            <stop stop-color="#0B6631" offset="100%"></stop>
        </linearGradient>
        <linearGradient x1="17.5884536%" y1="-6.51029152%" x2="82.4116312%" y2="106.510377%" id="linearGradient-2">
            <stop stop-color="#18884F" offset="0%"></stop>
            <stop stop-color="#117E43" offset="50%"></stop>
            <stop stop-color="#0B6631" offset="100%"></stop>
        </linearGradient>
    </defs>
    <g id="🔥-Templates" stroke="none" stroke-width="1" fill="none" fill-rule="evenodd">
        <g id="icons" transform="translate(-864.000000, -330.000000)">
            <g id="-Files-/-24px" transform="translate(864.000000, 330.000000)">
                <path d="M13.7222,0 L19,4.99997 L19,22 C19,23.1046 18.1046,24 17,24 L17,24 L2,24 C0.895431,24 0,23.1046 0,22 L0,22 L0,2 C0,0.895431 0.895431,0 2,0 L2,0 L13.7222,0 Z M14,1.64066 L14,4 C14,4.55228 14.4477,5 15,5 L17.546,5 L14,1.64066 Z M18,22 L18,6 L15,6 C13.8954,6 13,5.10457 13,4 L13,1 L2,1 C1.44771,1 1,1.44772 1,2 L1,22 C1,22.5523 1.44771,23 2,23 L17,23 C17.5523,23 18,22.5523 18,22 Z" id="File" fill="#DDE2E7"></path>
                <g id="Group" transform="translate(3.000000, 7.000000)" fill-rule="nonzero">
                    <g id="Icon">
                        <g id="Microsoft_Excel-Logo.wine" transform="translate(-1174.333333, -989.733333)">
                            <path d="M50.0651163,34.9916667 L18.5426357,29.4666667 L18.5426357,70.2909003 C18.5426357,72.1552895 20.0643505,73.6666667 21.9414921,73.6666667 L76.3344769,73.6666667 C78.2116184,73.6666667 79.7333333,72.1552895 79.7333333,70.2909003 L79.7333333,55.25 L50.0651163,34.9916667 Z" id="Path" fill="#185C37"></path>
                            <path d="M50.0651163,0 L21.9414921,0 C20.0643505,0 18.5426357,1.51137715 18.5426357,3.37576635 L18.5426357,18.4166667 L50.0651163,36.8333333 L66.7534884,42.3583333 L79.7333333,36.8333333 L79.7333333,18.4166667 L50.0651163,0 Z" id="Path" fill="#21A366"></path>
                            <polygon id="Path" fill="#107C41" points="18.5426357 18.4166667 50.0651163 18.4166667 50.0651163 36.8333333 18.5426357 36.8333333"></polygon>
                            <path d="M41.1034692,14.7333333 L18.5426357,14.7333333 L18.5426357,60.775 L41.1034692,60.775 C42.9780687,60.7689476 44.4962318,59.2610981 44.5023256,57.3992336 L44.5023256,18.1090997 C44.4962318,16.2472352 42.9780687,14.7393858 41.1034692,14.7333333 Z" id="Path" fill="#000000" opacity="0.1"></path>
                            <path d="M39.2492056,16.575 L18.5426357,16.575 L18.5426357,62.6166667 L39.2492056,62.6166667 C41.1238051,62.6106142 42.6419682,61.1027648 42.648062,59.2409003 L42.648062,19.9507664 C42.6419682,18.0889019 41.1238051,16.5810524 39.2492056,16.575 Z" id="Path" fill="#000000" opacity="0.2"></path>
                            <path d="M39.2492056,16.575 L18.5426357,16.575 L18.5426357,58.9333333 L39.2492056,58.9333333 C41.1238051,58.9272809 42.6419682,57.4194315 42.648062,55.557567 L42.648062,19.9507664 C42.6419682,18.0889019 41.1238051,16.5810524 39.2492056,16.575 Z" id="Path" fill="#000000" opacity="0.2"></path>
                            <path d="M37.394942,16.575 L18.5426357,16.575 L18.5426357,58.9333333 L37.394942,58.9333333 C39.2695416,58.9272809 40.7877046,57.4194315 40.7937984,55.557567 L40.7937984,19.9507664 C40.7877046,18.0889019 39.2695416,16.5810524 37.394942,16.575 Z" id="Path" fill="#000000" opacity="0.2"></path>
                            <path d="M3.39885641,16.575 L37.3949072,16.575 C39.2720487,16.575 40.7937636,18.0863772 40.7937636,19.9507664 L40.7937636,53.7158657 C40.7937636,55.5802549 39.2720487,57.0916321 37.3949072,57.0916321 L3.39885641,57.0916321 C1.52171489,57.0916321 0,55.5802895 0,53.7159003 L0,19.9507664 C0,18.0863772 1.52171489,16.575 3.39885641,16.575 Z" id="Path" fill="url(#linearGradient-1)"></path>
                            <path d="M10.5266456,47.8060006 L17.6766859,36.8020336 L11.1255814,25.858833 L16.395381,25.858833 L19.9704012,32.8571664 C20.3004775,33.5219994 20.5266803,34.015566 20.6490791,34.3415324 L20.695427,34.3415324 L25.2587609,25.8625336 L30.0965258,25.8625336 L23.3785202,36.7412673 L30.2671529,47.805966 L25.1197172,47.805966 L20.9902636,40.1244003 C24.461487,40.3997189 27.094659,43.347905 26.955948,46.8037774 C26.8172371,50.2596498 23.9561296,52.9902941 20.4738555,52.9902941 C16.9915814,52.9902941 14.130474,50.2596498 13.991763,46.8037774 C13.8530521,43.347905 16.486224,40.3997189 19.9574475,40.1244003 L19.8962655,40.1244003 C17.3061316,39.8596808 15.3788957,37.625908 15.5123361,35.0431842 C15.6457765,32.4604605 17.7931056,30.4343558 20.3969166,30.4343558 C23.0007276,30.4343558 25.1480567,32.4604605 25.2814972,35.0431842 C25.4149376,37.625908 23.4877017,39.8596808 20.8975678,40.1244003 L16.6457501,47.8373003 L10.5266456,47.8060006 Z" id="Path" fill="#FFFFFF"></path>
                            <path d="M76.3344769,0 L50.0651163,0 L50.0651163,18.4166667 L79.7333333,18.4166667 L79.7333333,3.37576635 C79.7333333,1.51137715 78.2116184,0 76.3344769,0 Z" id="Path" fill="#33C481"></path>
                            <polygon id="Path" fill="#107C41" points="50.0651163 36.8333333 79.7333333 36.8333333 79.7333333 55.25 50.0651163 55.25"></polygon>
                        </g>
                        <g id="Microsoft_Excel-Logo.wine">
                            <path d="M8.1627907,5.76333333 L3.02325581,4.85333333 L3.02325581,11.5773248 C3.02325581,11.8844006 3.2713615,12.1333333 3.57741719,12.1333333 L12.4458386,12.1333333 C12.7518943,12.1333333 13,11.8844006 13,11.5773248 L13,9.1 L8.1627907,5.76333333 Z" id="Path" fill="#185C37"></path>
                            <path d="M8.1627907,0 L3.57741719,0 C3.2713615,0 3.02325581,0.248932707 3.02325581,0.556008576 L3.02325581,3.03333333 L8.1627907,6.06666667 L10.8837209,6.97666667 L13,6.06666667 L13,3.03333333 L8.1627907,0 Z" id="Path" fill="#21A366"></path>
                            <polygon id="Path" fill="#107C41" points="3.02325581 3.03333333 8.1627907 3.03333333 8.1627907 6.06666667 3.02325581 6.06666667"></polygon>
                            <path d="M6.70165258,2.42666667 L3.02325581,2.42666667 L3.02325581,10.01 L6.70165258,10.01 C7.00729381,10.0090031 7.2548204,9.76065146 7.25581395,9.45399142 L7.25581395,2.98267524 C7.2548204,2.67601521 7.00729381,2.42766354 6.70165258,2.42666667 Z" id="Path" fill="#000000" opacity="0.1"></path>
                            <path d="M6.399327,2.73 L3.02325581,2.73 L3.02325581,10.3133333 L6.399327,10.3133333 C6.70496823,10.3123365 6.95249481,10.0639848 6.95348837,9.75732476 L6.95348837,3.28600858 C6.95249481,2.97934854 6.70496823,2.73099687 6.399327,2.73 Z" id="Path" fill="#000000" opacity="0.2"></path>
                            <path d="M6.399327,2.73 L3.02325581,2.73 L3.02325581,9.70666667 L6.399327,9.70666667 C6.70496823,9.7056698 6.95249481,9.45731812 6.95348837,9.15065809 L6.95348837,3.28600858 C6.95249481,2.97934854 6.70496823,2.73099687 6.399327,2.73 Z" id="Path" fill="#000000" opacity="0.2"></path>
                            <path d="M6.09700142,2.73 L3.02325581,2.73 L3.02325581,9.70666667 L6.09700142,9.70666667 C6.40264265,9.7056698 6.65016923,9.45731812 6.65116279,9.15065809 L6.65116279,3.28600858 C6.65016923,2.97934854 6.40264265,2.73099687 6.09700142,2.73 Z" id="Path" fill="#000000" opacity="0.2"></path>
                            <path d="M0.554161371,2.73 L6.09699574,2.73 C6.40305142,2.73 6.65115711,2.97893271 6.65115711,3.28600858 L6.65115711,8.84731906 C6.65115711,9.15439493 6.40305142,9.40332764 6.09699574,9.40332764 L0.554161371,9.40332764 C0.248105688,9.40332764 0,9.15440063 0,8.84732476 L0,3.28600858 C0,2.97893271 0.248105688,2.73 0.554161371,2.73 Z" id="Path" fill="url(#linearGradient-2)"></path>
                            <path d="M1.71630091,7.87392951 L2.88206835,6.06151142 L1.81395349,4.25910191 L2.67315995,4.25910191 L3.25604367,5.41176858 C3.30986047,5.52127049 3.34674135,5.60256382 3.36669767,5.65625239 L3.37425439,5.65625239 L4.11827623,4.25971142 L4.90704225,4.25971142 L3.81171525,6.05150285 L4.93486188,7.87392382 L4.09560607,7.87392382 L3.42232558,6.60872476 C3.98828592,6.65407134 2.68797131,6.65407134 3.25393165,6.60872476 L2.67315995,7.14349449 C2.25085552,7.09989364 3.22219974,6.64372313 3.24395633,6.21833333 C3.26571292,5.79294353 3.82951658,6.5651239 3.40721214,6.60872476 L2.713981,7.87908476 L1.71630091,7.87392951 Z" id="Path" fill="#FFFFFF"></path>
                            <path d="M12.4458386,0 L8.1627907,0 L8.1627907,3.03333333 L13,3.03333333 L13,0.556008576 C13,0.248932707 12.7518943,0 12.4458386,0 Z" id="Path" fill="#33C481"></path>
                            <polygon id="Path" fill="#107C41" points="8.1627907 6.06666667 13 6.06666667 13 9.1 8.1627907 9.1"></polygon>
                        </g>
                    </g>
                </g>
            </g>
        </g>
    </g>
</svg>