<svg width="20" height="13" viewBox="0 0 20 13" xmlns="http://www.w3.org/2000/svg" xmlns:xlink="http://www.w3.org/1999/xlink">
    <defs>
        <path d="M4.8 3.004A5 5 0 0 0 0 8c0 2.419 1.718 4.537 4 5h12c2.25-.249 4-2.184 4-4.5a4.5 4.5 0 0 0-4.34-4.497A6.004 6.004 0 0 0 4.8 3.004zM10 2a4.004 4.004 0 0 1 3.774 2.668l.453 1.286 1.363.048A2.5 2.5 0 0 1 18 8.5c0 1.268-.938 2.321-2.127 2.5H4.229C2.986 10.662 2 9.433 2 8a3 3 0 0 1 2.879-2.998l1.102-.043.551-.955A4 4 0 0 1 10 2zm-.704 2.153L7.141 6.432a.5.5 0 0 0 .36.847h1.155v1.5a1 1 0 0 0 2 0v-1.5h1.155a.5.5 0 0 0 .36-.847l-2.155-2.279a.5.5 0 0 0-.72 0z" id="a"/>
    </defs>
    <use fill="#c0c7cf" xlink:href="#a" fill-rule="evenodd"/>
</svg>
