<svg width="20" height="20" viewBox="0 0 20 20" xmlns="http://www.w3.org/2000/svg" xmlns:xlink="http://www.w3.org/1999/xlink">
    <defs>
        <path d="M12.273 5.455a2.28 2.28 0 0 1 2.272 2.272v9.091a2.28 2.28 0 0 1-2.272 2.273H4.09a2.28 2.28 0 0 1-2.273-2.273v-9.09a2.28 2.28 0 0 1 2.273-2.273h8.182zm0 1.818H4.09c-.246 0-.455.176-.455.384v9.231c0 .208.21.385.455.385h8.182c.246 0 .454-.177.454-.385v-9.23c0-.209-.208-.385-.454-.385zM15.909.909a2.28 2.28 0 0 1 2.273 2.273v9.09a2.28 2.28 0 0 1-2.273 2.273h-.454v-1.818h.454c.246 0 .455-.176.455-.384V3.112c0-.208-.21-.385-.455-.385H7.727c-.246 0-.454.177-.454.385v1.433H5.795a1.25 1.25 0 0 0-.341.048V3.182A2.28 2.28 0 0 1 7.728.909h8.182z" id="a"/>
    </defs>
    <g fill="none" fill-rule="evenodd">
        <mask id="b" fill="#fff">
            <use xlink:href="#a"/>
        </mask>
        <g mask="url(#b)" fill="#FFF">
            <path d="M0 0h20v20H0z"/>
        </g>
    </g>
</svg>
