<svg width="20" height="20" viewBox="0 0 20 20" xmlns="http://www.w3.org/2000/svg" xmlns:xlink="http://www.w3.org/1999/xlink">
    <defs>
        <path d="m7.587 12.82-.347.256a1.185 1.185 0 0 1-.99.193l-3.525-.888a1.132 1.132 0 0 1-.852-.927c-.07-.47.171-.92.584-1.142l13.872-7.444a1.186 1.186 0 0 1 1.173.03c.387.236.602.678.527 1.13L16.287 14.53a1.124 1.124 0 0 1-.545.78c-.267.156-.586.2-.886.125l-3.043-.766-2.13 3.024a1.163 1.163 0 0 1-1.256.45 1.126 1.126 0 0 1-.853-1.084v-4.073c0-.056.004-.111.013-.166zm5.416-4.027-3.802 4.39v2.37l1.925-2.734.542.136 3.102.78 1.432-8.634-3.199 3.692zm-8.615 2.33 2.058.517 8.024-5.929-10.082 5.411z" id="k8c6js6bka"/>
    </defs>
    <g fill="none" fill-rule="evenodd">
        <mask id="g05mcobwpb" fill="#fff">
            <use xlink:href="#k8c6js6bka"/>
        </mask>
        <g mask="url(#g05mcobwpb)" fill="#fff">
            <path d="M0 0h20v20H0z"/>
        </g>
    </g>
</svg>
