<svg width="16" height="17" viewBox="0 0 16 17" xmlns="http://www.w3.org/2000/svg" xmlns:xlink="http://www.w3.org/1999/xlink">
    <defs>
        <path d="M5.694 9.008A6 6 0 0 0 0 15a2 2 0 0 0 2 2h12a2 2 0 0 0 2-2 6 6 0 0 0-6-6H6c-.103 0-.205.003-.306.008zM5.354 7C6.06 7.622 6.986 8 8 8s1.94-.378 2.646-1a4 4 0 1 0-5.292 0zm8.146 8a.5.5 0 0 0 .5-.5V14c0-2.209-1.79-3-4-3H6c-2.21 0-4 .791-4 3v.5a.5.5 0 0 0 .5.5h11zM8 6a2 2 0 1 0 0-4 2 2 0 0 0 0 4z" id="a"/>
    </defs>
    <use fill="#798790" xlink:href="#a" fill-rule="evenodd"/>
</svg>
