<svg width="20" height="20" viewBox="0 0 20 20" xmlns="http://www.w3.org/2000/svg">
    <defs>
        <linearGradient x1="21.766%" y1="-6.51%" x2="78.234%" y2="106.51%" id="mzogdij5za">
            <stop stop-color="#18884F" offset="0%"/>
            <stop stop-color="#117E43" offset="50%"/>
            <stop stop-color="#0B6631" offset="100%"/>
        </linearGradient>
    </defs>
    <g fill-rule="nonzero" fill="none">
        <path d="M12.558 9.5 4.651 8v11.084c0 .506.382.916.853.916h13.643c.471 0 .853-.41.853-.916V15l-7.442-5.5z" fill="#185C37"/>
        <path d="M12.558 0H5.504c-.471 0-.853.41-.853.916V5l7.907 5 4.186 1.5L20 10V5l-7.442-5z" fill="#21A366"/>
        <path fill="#107C41" d="M4.651 5h7.907v5H4.651z"/>
        <path d="M10.31 4H4.651v12.5h5.66c.47-.002.85-.411.852-.916V4.916c-.002-.505-.383-.914-.853-.916z" fill="#000" opacity=".1"/>
        <path d="M9.845 4.5H4.651V17h5.194c.47-.002.851-.411.853-.916V5.416c-.002-.505-.383-.914-.853-.916z" fill="#000" opacity=".2"/>
        <path d="M9.845 4.5H4.651V16h5.194c.47-.002.851-.411.853-.916V5.416c-.002-.505-.383-.914-.853-.916z" fill="#000" opacity=".2"/>
        <path d="M9.38 4.5H4.651V16H9.38c.47-.002.851-.411.853-.916V5.416c-.002-.505-.383-.914-.853-.916z" fill="#000" opacity=".2"/>
        <path d="M.853 4.5H9.38c.47 0 .853.41.853.916v9.167c0 .507-.382.917-.853.917H.853c-.471 0-.853-.41-.853-.916V5.416C0 4.91.382 4.5.853 4.5z" fill="url(#mzogdij5za)"/>
        <path d="m2.64 12.979 1.794-2.987L2.791 7.02h1.322l.896 1.9c.083.181.14.315.17.403h.012l1.145-2.301h1.213L5.864 9.975l1.728 3.004H6.301l-1.036-2.085c.87.074-1.13.074-.259 0l-.893.881c-.65-.072.844-.824.878-1.525.033-.701.9.572.25.644l-1.066 2.094-1.535-.009z" fill="#FFF"/>
        <path d="M19.147 0h-6.589v5H20V.916C20 .41 19.618 0 19.147 0z" fill="#33C481"/>
        <path fill="#107C41" d="M12.558 10H20v5h-7.442z"/>
    </g>
</svg>
