<svg width="20" height="20" viewBox="0 0 20 20" xmlns="http://www.w3.org/2000/svg" xmlns:xlink="http://www.w3.org/1999/xlink">
    <defs>
        <path d="M11.006 1.818c1.275 0 2.152 1.061 2.152 2.172v.03c.215.114.425.235.626.366l.162-.089c.838-.458 2.21-.407 2.913.748l1.006 1.653c.754 1.24.034 2.52-.834 2.995l-.178.097.005.21c0 .068-.003.14-.005.21l.178.097c.868.476 1.588 1.756.834 2.995l-1.006 1.653c-.704 1.155-2.075 1.207-2.913.748l-.162-.09a7.93 7.93 0 0 1-.626.366v.031c0 1.11-.877 2.172-2.152 2.172H8.994c-1.275 0-2.152-1.061-2.152-2.172v-.03a7.93 7.93 0 0 1-.627-.366l-.161.089c-.839.459-2.21.407-2.913-.748l-1.007-1.653c-.753-1.24-.033-2.52.835-2.995l.178-.097a8.42 8.42 0 0 1-.005-.21c0-.068.002-.14.005-.21l-.178-.097c-.868-.476-1.588-1.756-.835-2.995l1.007-1.653c.703-1.155 2.074-1.206 2.913-.748l.161.09a7.93 7.93 0 0 1 .627-.366V3.99c0-1.11.877-2.172 2.152-2.172zm0 1.818H8.994a.345.345 0 0 0-.336.354v1.238c-.877.237-1.658.7-2.274 1.323l-1.201-.658c-.179-.098-.399-.054-.491.099L3.685 7.645c-.092.152-.023.354.155.452l1.269.695a4.904 4.904 0 0 0 0 2.416l-1.27.695c-.177.098-.246.3-.154.452l1.007 1.653c.092.153.312.197.49.1l1.202-.659a5.058 5.058 0 0 0 2.274 1.324v1.237c0 .195.15.354.336.354h2.012a.345.345 0 0 0 .336-.354v-1.237a5.058 5.058 0 0 0 2.274-1.324l1.201.658c.178.098.398.054.491-.099l1.006-1.653c.093-.152.024-.354-.154-.452l-1.27-.695a4.904 4.904 0 0 0 0-2.416l1.27-.695c.178-.098.247-.3.154-.452l-1.006-1.653c-.093-.153-.313-.197-.49-.1l-1.202.659a5.048 5.048 0 0 0-2.274-1.323V3.99a.345.345 0 0 0-.336-.354zm-1.01 3.637A2.725 2.725 0 0 1 12.72 10a2.725 2.725 0 0 1-2.724 2.727A2.725 2.725 0 0 1 7.273 10a2.725 2.725 0 0 1 2.723-2.727zM10.905 10a.909.909 0 1 1-1.818 0 .909.909 0 0 1 1.818 0z" id="a"/>
    </defs>
    <g fill="none" fill-rule="evenodd">
        <mask id="b" fill="#fff">
            <use xlink:href="#a"/>
        </mask>
        <use fill="#fff" xlink:href="#a"/>
    </g>
</svg>
