<svg width="24" height="24" viewBox="0 0 24 24" xmlns="http://www.w3.org/2000/svg" xmlns:xlink="http://www.w3.org/1999/xlink">
    <defs>
        <path d="M19.856 2.617c.63-.837 1.962-.392 1.962.656V19.69c0 1.078-1.397 1.503-1.997.608-1.852-2.763-4.66-4.386-8.502-4.871l.033.066.063.162 1.122 3.273a2.182 2.182 0 0 1-2.064 2.89h-2.37a2.182 2.182 0 0 1-2.063-1.475l-1.122-3.273a2.179 2.179 0 0 1-.119-.708h-.435a2.182 2.182 0 0 1-2.182-2.181V8.727c0-1.205.977-2.182 2.182-2.182h3.272c.828 0 1.548.461 1.918 1.14l.105-.01.155-.007c4.186-.007 7.5-1.674 10.042-5.051zM9.35 16.364H6.98l1.123 3.272h2.369L9.35 16.364zM19.636 6.116l-.286.26c-2.615 2.302-5.807 3.467-9.532 3.474v3.264l.467.026c3.86.248 6.987 1.446 9.335 3.592l.016.016V6.116zm-12 2.611H4.364v5.455h3.272V8.727z" id="a"/>
    </defs>
    <g fill="none" fill-rule="evenodd">
        <mask id="b" fill="#fff">
            <use xlink:href="#a"/>
        </mask>
        <use fill="#979797" fill-rule="nonzero" xlink:href="#a"/>
        <g mask="url(#b)" fill="#2277B7">
            <path d="M0 0h24v24H0z"/>
        </g>
    </g>
</svg>
