<svg width="24" height="24" viewBox="0 0 24 24" xmlns="http://www.w3.org/2000/svg" xmlns:xlink="http://www.w3.org/1999/xlink">
    <defs>
        <rect id="a" x="0" y="0" width="24" height="24" rx="6"/>
        <path d="M12.342 4.15a.726.726 0 1 0-1.028-1.028L7.733 6.703 4.15 3.123A.726.726 0 1 0 3.122 4.15l3.581 3.582-3.58 3.58a.726.726 0 1 0 1.028 1.029l3.582-3.581 3.58 3.581a.726.726 0 1 0 1.029-1.028L8.761 7.733l3.581-3.582z" id="c"/>
    </defs>
    <g fill="none" fill-rule="evenodd">
        <mask id="b" fill="#fff">
            <use xlink:href="#a"/>
        </mask>
        <use fill-opacity="0" fill="#D8D8D8" xlink:href="#a"/>
        <g mask="url(#b)" fill="#7C878F">
            <path d="M0 0h24v24H0z"/>
        </g>
        <g mask="url(#b)">
            <g transform="translate(4 4)">
                <mask id="d" fill="#fff">
                    <use xlink:href="#c"/>
                </mask>
                <use fill="#000" xlink:href="#c"/>
                <g mask="url(#d)">
                    <path fill="#FFF" d="M0 0h16v16H0z"/>
                </g>
            </g>
        </g>
    </g>
</svg>
