<svg width="24" height="24" viewBox="0 0 24 24" xmlns="http://www.w3.org/2000/svg" xmlns:xlink="http://www.w3.org/1999/xlink">
    <defs>
        <path d="M6.545 6.545a1.09 1.09 0 1 0 0-2.181 1.09 1.09 0 0 0 0 2.181zm0-4.363A3.273 3.273 0 0 1 7.636 8.54v3.943c.342-.12.709-.186 1.091-.186h6.546a1.09 1.09 0 0 0 1.09-1.091v-.484a3.274 3.274 0 0 1 1.092-6.36 3.273 3.273 0 0 1 1.09 6.36v.484a3.273 3.273 0 0 1-3.272 3.272H8.727c-.565 0-1.03.43-1.085.982a3.274 3.274 0 1 1-2.187-.002V8.54a3.274 3.274 0 0 1 1.09-6.36zm0 15.273a1.09 1.09 0 1 0 0 2.181 1.09 1.09 0 0 0 0-2.181zm10.91-10.91a1.09 1.09 0 1 0 0 2.182 1.09 1.09 0 0 0 0-2.182z" id="fbs60etbxa"/>
    </defs>
    <g fill="none" fill-rule="evenodd">
        <mask id="5uw02bjksb" fill="#fff">
            <use xlink:href="#fbs60etbxa"/>
        </mask>
        <g mask="url(#5uw02bjksb)" fill="#2277B7">
            <path d="M0 0h24v24H0z"/>
        </g>
    </g>
</svg>
