<svg width="22" height="22" viewBox="0 0 22 22" xmlns="http://www.w3.org/2000/svg" xmlns:xlink="http://www.w3.org/1999/xlink">
    <defs>
        <path d="M12 2v.025H6a2 2 0 0 0-2 2v14a2 2 0 0 0 2 2h10a2 2 0 0 0 2-2v-10h.025L12 2zm-1 5.025v-3H6.5a.5.5 0 0 0-.5.5v13a.5.5 0 0 0 .5.5h9a.5.5 0 0 0 .5-.5v-8.5h-3a2 2 0 0 1-2-2z" id="a"/>
    </defs>
    <g fill="none" fill-rule="evenodd">
        <mask id="b" fill="#fff">
            <use xlink:href="#a"/>
        </mask>
        <g mask="url(#b)" fill="#C0C6CD">
            <path d="M0 0h22v22H0z"/>
        </g>
    </g>
</svg>
