<svg width="24" height="24" viewBox="0 0 24 24" xmlns="http://www.w3.org/2000/svg" xmlns:xlink="http://www.w3.org/1999/xlink">
    <defs>
        <path d="M19.09 3.273H4.91a.554.554 0 0 0-.546.545v16.364c0 .295.25.545.545.545h14.182c.295 0 .545-.25.545-.545V3.818a.554.554 0 0 0-.545-.545zm0-2.182c1.5 0 2.728 1.227 2.728 2.727v16.364c0 1.5-1.227 2.727-2.727 2.727H4.909a2.735 2.735 0 0 1-2.727-2.727V3.818c0-1.5 1.227-2.727 2.727-2.727h14.182zm-2.672 10.075a1.08 1.08 0 0 0-1.527 0l-3.957 3.957-1.732-1.732a1.08 1.08 0 0 0-1.433-.083l-.094.083a1.08 1.08 0 0 0 0 1.528l2.29 2.29c.204.204.47.31.736.317.383.14.828.056 1.135-.25l4.582-4.583a1.08 1.08 0 0 0 0-1.527zm-.054-5.711H7.636a1.09 1.09 0 0 0 0 2.181h8.728a1.09 1.09 0 0 0 0-2.181z" id="a"/>
    </defs>
    <g fill="none" fill-rule="evenodd">
        <mask id="b" fill="#fff">
            <use xlink:href="#a"/>
        </mask>
        <g mask="url(#b)" fill="#2277B7">
            <path d="M0 0h24v24H0z"/>
        </g>
    </g>
</svg>
