<svg width="20" height="20" viewBox="0 0 20 20" xmlns="http://www.w3.org/2000/svg" xmlns:xlink="http://www.w3.org/1999/xlink">
    <defs>
        <path d="M16.546 2.18c.525-.697 1.636-.326 1.636.547V16.41c0 .899-1.164 1.253-1.664.507-1.543-2.303-3.883-3.655-7.084-4.06l.022.047.056.144.935 2.727a1.818 1.818 0 0 1-1.72 2.408H6.753a1.818 1.818 0 0 1-1.72-1.229l-.935-2.727a1.816 1.816 0 0 1-.098-.59h-.364a1.818 1.818 0 0 1-1.818-1.818V7.273c0-1.004.814-1.818 1.818-1.818h2.728c.69 0 1.29.384 1.598.95l.068-.008.149-.007c3.487-.006 6.25-1.395 8.367-4.21zM7.792 13.637H5.818l.935 2.728h1.974l-.935-2.728zm8.572-8.54-.24.217c-2.178 1.919-4.838 2.89-7.942 2.896v2.72l.389.02c3.217.208 5.822 1.206 7.78 2.995l.013.012v-8.86zm-10 2.177H3.636v4.545h2.728V7.273z" id="a"/>
    </defs>
    <g fill="none" fill-rule="evenodd">
        <mask id="b" fill="#fff">
            <use xlink:href="#a"/>
        </mask>
        <g mask="url(#b)" fill="#2277B7">
            <path d="M0 0h20v20H0z"/>
        </g>
    </g>
</svg>
