<svg width="20" height="20" viewBox="0 0 20 20" xmlns="http://www.w3.org/2000/svg" xmlns:xlink="http://www.w3.org/1999/xlink">
    <defs>
        <path d="M16.364 3.636c1.004 0 1.818.814 1.818 1.819v9.09a1.818 1.818 0 0 1-1.818 1.819H3.636a1.818 1.818 0 0 1-1.818-1.819v-9.09c0-1.005.814-1.819 1.818-1.819zm-.455 1.819H4.091a.455.455 0 0 0-.455.454v8.182c0 .25.204.454.455.454h11.818a.455.455 0 0 0 .455-.454V5.909a.455.455 0 0 0-.455-.454zm-2.855 2.378a.818.818 0 0 1 .932 1.343l-1.261.875 1.201.745a.825.825 0 1 1-.87 1.403l-1.81-1.122L10 11.95l-1.147-.805-1.914 1.095a.83.83 0 0 1-.824-1.44l1.227-.703-1.328-.922a.818.818 0 1 1 .932-1.343L10 9.95z" id="a"/>
    </defs>
    <g fill="none" fill-rule="evenodd">
        <mask id="b" fill="#fff">
            <use xlink:href="#a"/>
        </mask>
        <g mask="url(#b)" fill="#C0C6CD">
            <path d="M0 0h20v20H0z"/>
        </g>
    </g>
</svg>
