<svg width="20" height="20" viewBox="0 0 20 20" xmlns="http://www.w3.org/2000/svg" xmlns:xlink="http://www.w3.org/1999/xlink">
    <defs>
        <path d="M7.903 10.916a5.454 5.454 0 0 0-5.176 5.448c0 1.004.814 1.818 1.818 1.818h10.91a1.818 1.818 0 0 0 1.818-1.818 5.454 5.454 0 0 0-5.455-5.455H8.182a5.65 5.65 0 0 0-.279.007zm-.308-1.825C8.235 9.656 9.078 10 10 10c.922 0 1.764-.344 2.405-.91a3.636 3.636 0 1 0-4.81 0zM15 16.364a.455.455 0 0 0 .455-.455v-.454c0-2.009-1.629-2.728-3.637-2.728H8.182c-2.008 0-3.637.72-3.637 2.728v.454c0 .251.204.455.455.455h10zm-5-8.182a1.818 1.818 0 1 0 0-3.636 1.818 1.818 0 0 0 0 3.636z" id="a"/>
    </defs>
    <g fill="none" fill-rule="evenodd">
        <mask id="b" fill="#fff">
            <use xlink:href="#a"/>
        </mask>
        <g mask="url(#b)" fill="#2277B7">
            <path d="M0 0h20v20H0z"/>
        </g>
    </g>
</svg>
