<svg width="20" height="20" viewBox="0 0 20 20" xmlns="http://www.w3.org/2000/svg" xmlns:xlink="http://www.w3.org/1999/xlink">
    <defs>
        <path d="M15.91 2.727H4.09a.461.461 0 0 0-.454.455v13.636c0 .246.21.455.455.455h11.818a.461.461 0 0 0 .455-.455V3.182a.461.461 0 0 0-.455-.455zm0-1.818a2.28 2.28 0 0 1 2.272 2.273v13.636a2.28 2.28 0 0 1-2.273 2.273H4.091a2.28 2.28 0 0 1-2.273-2.273V3.182A2.28 2.28 0 0 1 4.091.909h11.818zM6.363 12.727a.91.91 0 1 0 0 1.818.91.91 0 0 0 0-1.818zm7.272 0H9.091a.91.91 0 0 0 0 1.818h4.545a.91.91 0 1 0 0-1.818zM6.364 9.091a.91.91 0 1 0 0 1.818.91.91 0 0 0 0-1.818zm7.272 0H9.091a.91.91 0 0 0 0 1.818h4.545a.91.91 0 1 0 0-1.818zM6.364 5.455a.91.91 0 1 0 0 1.818.91.91 0 0 0 0-1.818zm7.272 0H9.091a.91.91 0 0 0 0 1.818h4.545a.91.91 0 1 0 0-1.818z" id="a"/>
    </defs>
    <g fill="none" fill-rule="evenodd">
        <mask id="b" fill="#fff">
            <use xlink:href="#a"/>
        </mask>
        <g mask="url(#b)" fill="#2277B7">
            <path d="M0 0h20v20H0z"/>
        </g>
    </g>
</svg>
