<svg width="20" height="20" viewBox="0 0 20 20" xmlns="http://www.w3.org/2000/svg" xmlns:xlink="http://www.w3.org/1999/xlink">
    <defs>
        <path d="M15.91 2.727H4.09a.461.461 0 0 0-.454.455v13.636c0 .246.21.455.455.455h11.818a.461.461 0 0 0 .455-.455V3.182a.461.461 0 0 0-.455-.455zm0-1.818a2.28 2.28 0 0 1 2.272 2.273v13.636a2.28 2.28 0 0 1-2.273 2.273H4.091a2.28 2.28 0 0 1-2.273-2.273V3.182A2.28 2.28 0 0 1 4.091.909h11.818zM9.09 11.82H6.365a.91.91 0 0 0 0 1.817H9.09a.91.91 0 1 0 0-1.818zm3.637-3.637H6.364a.91.91 0 0 0 0 1.818h6.363a.91.91 0 1 0 0-1.818zm.91-3.637H6.363a.91.91 0 1 0 0 1.819h7.272a.91.91 0 1 0 0-1.819z" id="a"/>
    </defs>
    <g fill="none" fill-rule="evenodd">
        <mask id="b" fill="#fff">
            <use xlink:href="#a"/>
        </mask>
        <g mask="url(#b)" fill="#C0C6CD">
            <path d="M0 0h20v20H0z"/>
        </g>
    </g>
</svg>
