<svg width="20" height="20" viewBox="0 0 20 20" xmlns="http://www.w3.org/2000/svg" xmlns:xlink="http://www.w3.org/1999/xlink">
    <defs>
        <path d="M5.455 5.455a.91.91 0 1 0 0-1.819.91.91 0 0 0 0 1.819zm0-3.637a2.727 2.727 0 0 1 .909 5.3v3.285c.284-.1.59-.155.909-.155h5.454a.91.91 0 0 0 .91-.91v-.402a2.728 2.728 0 1 1 1.818 0v.403a2.727 2.727 0 0 1-2.728 2.727H7.273a.91.91 0 0 0-.905.818 2.728 2.728 0 1 1-1.823-.002V7.118a2.728 2.728 0 0 1 .91-5.3zm0 12.727a.91.91 0 1 0 0 1.819.91.91 0 0 0 0-1.819zm9.09-9.09a.91.91 0 1 0 0 1.818.91.91 0 0 0 0-1.818z" id="a"/>
    </defs>
    <g fill="none" fill-rule="evenodd">
        <mask id="b" fill="#fff">
            <use xlink:href="#a"/>
        </mask>
        <g mask="url(#b)" fill="#2277B7">
            <path d="M0 0h20v20H0z"/>
        </g>
    </g>
</svg>
