<svg width="20" height="20" viewBox="0 0 20 20" xmlns="http://www.w3.org/2000/svg" xmlns:xlink="http://www.w3.org/1999/xlink">
    <defs>
        <path d="M2.728 18.182h14.545l.09-8.448h.272c.843 0 1.232-1.05.592-1.599l-1.773-1.521V5.189a.909.909 0 0 0-1.81-.127L11.12 2.037a.91.91 0 0 0-1.152-.026L2.17 8.109c-.68.532-.304 1.625.56 1.625h.089l-.09 8.448zM15.386 8.094c.1.086.159.212.159.344v7.471a.455.455 0 0 1-.455.455h-1.454v-3.637a.91.91 0 0 0-.909-.909H10.91a.91.91 0 0 0-.909.91l.09 3.636H5a.455.455 0 0 1-.455-.455V8.636c0-.14.065-.272.175-.358l5.488-4.146a.454.454 0 0 1 .576.012l4.602 3.95z" id="a"/>
    </defs>
    <g fill="none" fill-rule="evenodd">
        <mask id="b" fill="#fff">
            <use xlink:href="#a"/>
        </mask>
        <g mask="url(#b)" fill="#C0C6CD">
            <path d="M0 0h20v20H0z"/>
        </g>
    </g>
</svg>
